<?xml version="1.0" encoding="utf-8"?>
<!-- Generator: Adobe Illustrator 21.0.0, SVG Export Plug-In . SVG Version: 6.00 Build 0)  -->
<svg version="1.1" id="Layer_1" xmlns="http://www.w3.org/2000/svg" xmlns:xlink="http://www.w3.org/1999/xlink" x="0px" y="0px"
	 viewBox="0 0 512 512" style="enable-background:new 0 0 512 512;" xml:space="preserve">
<style type="text/css">
	.st0{fill:#3E4041;}
	.st1{fill:#5DA3C2;}
	.st2{fill:#FFFFFF;}
</style>
<g>
	<polyline class="st0" points="0,512 512,512 512,0 0,0 0,512 	"/>
	<path class="st1" d="M295.8,226.2c-0.1,0.3-0.2,0.8-0.2,1.1l-2.6,12.3l2.8-13L295.8,226.2"/>
	<polyline class="st1" points="217,234.4 215.6,239.6 217,234.4 217,234.4 	"/>
	<path class="st2" d="M324.2,125c3.9,8.9,6.4,23.6,2.7,34.4c15.4,13.2,20.7,45.2,13.3,71.4c22,1.7,48.2-0.8,65.1,5.9
		c-15.8-2-37.4-6-57.8-4.6c-3.9,0.3-9.6-0.1-9.3,5.3c23.6,1.9,47,3.9,66.4,9.9c-19.2-3.1-42.5-7.9-66.4-8.6
		c-9.9,19.5-29.7,29-57.1,31c2.9,6.4,8.6,8.9,10,19.2c2.1,15.4-3.2,38,2,48.2c2.5,4.9,6.6,5.1,9.3,9.3c-6.7,7.9-23.4-0.9-25.2-9.3
		c-3.2-14.3,4.9-36.5-4-46.3c0.6,15.6-3.7,37.6,0.7,51.5c1.7,5.5,6.7,7.6,5.3,12.6c-31.2,3.2-18.2-40.4-23.3-66.1
		c-4.7,0.3-2.6,7-2.7,9.9c-0.1,25.1,5.1,59.5-21.9,56.2c-0.8-5.3,3.6-7.1,5.3-11.9c4.9-14.1-0.9-35.2,1.3-52.2
		c-10.3,7.8,1.1,35-5.3,48.9c-3.7,8-15.6,11.5-24.6,7.9c1.2-6,7.3-5,10-10.6c3.7-7.8,0-18.9,1.3-30.4c-19.1,3.8-33.9-0.6-41.2-12.6
		c-3.2-5.4-4.1-11.7-8-16.5c-3.9-4.8-10.1-5.4-11.9-11.9c23.7-5.7,24.6,24.4,45.8,25.1c6.5,0.2,9.9-1.9,15.9-3.3
		c1.7-7.6,5.3-13.2,10.6-17.2c-26.4-3.6-48.3-11.9-58.4-31.7c-24,1.2-46,4.4-66.4,9.2c18.5-6.7,41.3-9.1,65.8-9.9
		c-1.4-8.7-14.1-6.3-21.9-5.9c-14.6,0.6-32.9,2.5-44.5,4.6c16.8-6,40.4-5.2,63.1-5.3c-7-21.8-4.5-56.5,10.6-69.4
		c-4.3-10.8-3-28.6,2.7-37c16.9,0.8,27.2,8.1,37.9,15.2c13.2-3.8,27.1-5.6,45.2-4.6c7.6,0.4,15.5,3.8,21.2,3.3
		c5.6-0.5,11.8-6.8,17.3-9.2C310,126.5,316.1,125.3,324.2,125"/>
</g>
</svg>
