<svg id="Layer_1" data-name="Layer 1" xmlns="http://www.w3.org/2000/svg" viewBox="0 0 512 512">
  <defs>
    <style>
      .cls-1 {
        fill: #222;
      }

      .cls-2 {
        fill: #61dafb;
      }
    </style>
  </defs>
  <title>React</title>
  <g>
    <polyline class="cls-1" points="0 512 512 512 512 0 0 0 0 512"/>
    <circle class="cls-2" cx="262.32" cy="215.74" r="27.13"/>
    <path class="cls-2" d="M412,215.74c0-19.3-24.17-37.59-61.22-48.93,8.55-37.76,4.75-67.81-12-77.43a26,26,0,0,0-13.3-3.33V99.3a13.75,13.75,0,0,1,6.77,1.54c8.08,4.63,11.58,22.27,8.85,44.95-.65,5.58-1.72,11.46-3,17.46a287.75,287.75,0,0,0-37.7-6.47,289.64,289.64,0,0,0-24.7-29.69c19.36-18,37.53-27.85,49.88-27.85V86h0c-16.33,0-37.7,11.64-59.32,31.83-21.61-20.07-43-31.59-59.32-31.59V99.48c12.29,0,30.52,11.8,49.88,29.67-8.31,8.73-16.63,16.64-24.52,27.63a277.27,277.27,0,0,0-37.76,6.53c-1.37-5.94-2.38-11.7-3.09-17.22-2.79-22.68.65-40.32,8.67-45a13.21,13.21,0,0,1,6.83-1.54V86.3h0a26.48,26.48,0,0,0-13.42,3.33c-16.68,9.62-20.43,39.6-11.82,77.25-36.93,11.4-61,29.63-61,48.87s24.17,37.59,61.22,48.93c-8.55,37.76-4.75,67.81,12,77.43a26.1,26.1,0,0,0,13.36,3.33c16.33,0,37.7-11.64,59.32-31.83,21.61,20.07,43,31.59,59.32,31.59a26.47,26.47,0,0,0,13.42-3.33c16.68-9.62,20.43-39.6,11.82-77.25C388,253.26,412,235,412,215.74Zm-77.31-39.6c-2.2,7.66-4.93,15.56-8,23.45-2.43-4.75-5-9.5-7.78-14.25s-5.64-9.38-8.55-13.89C318.78,172.69,326.91,174.23,334.69,176.13ZM307.5,239.37c-4.63,8-9.38,15.62-14.31,22.68-8.85.77-17.81,1.19-26.84,1.19s-17.93-.42-26.72-1.13q-7.39-10.6-14.37-22.56-6.77-11.67-12.35-23.63c3.68-8,7.84-15.91,12.29-23.69,4.63-8,9.38-15.62,14.31-22.68,8.85-.77,17.81-1.19,26.84-1.19s17.93.42,26.72,1.13q7.39,10.6,14.37,22.56,6.77,11.67,12.35,23.63C316,223.63,312,231.59,307.5,239.37Zm19.18-7.72c3.21,8,5.94,15.91,8.19,23.63-7.78,1.9-16,3.5-24.46,4.75,2.91-4.57,5.82-9.26,8.55-14.07S324.24,236.4,326.68,231.65ZM266.47,295A244.79,244.79,0,0,1,250,276c5.34.24,10.81.42,16.33.42s11.1-.12,16.51-.42A231.76,231.76,0,0,1,266.47,295Zm-44.18-35c-8.43-1.25-16.57-2.79-24.34-4.69,2.2-7.66,4.93-15.56,8-23.45,2.43,4.75,5,9.5,7.78,14.25S219.38,255.52,222.29,260Zm43.88-123.56a244.79,244.79,0,0,1,16.51,19c-5.34-.24-10.81-.42-16.33-.42s-11.1.12-16.51.42A231.76,231.76,0,0,1,266.17,136.47Zm-43.94,35c-2.91,4.57-5.82,9.26-8.55,14.07S208.4,195,206,199.76c-3.21-8-5.94-15.91-8.19-23.63C205.55,174.29,213.74,172.69,222.23,171.44ZM168.5,245.78c-21-9-34.62-20.72-34.62-30s13.6-21.14,34.62-30c5.11-2.2,10.69-4.16,16.45-6a285.18,285.18,0,0,0,13.36,36.16,281.15,281.15,0,0,0-13.18,36C179.25,250,173.66,248,168.5,245.78Zm31.94,84.85c-8.08-4.63-11.58-22.27-8.85-44.95.65-5.58,1.72-11.46,3-17.46a287.75,287.75,0,0,0,37.7,6.47A289.64,289.64,0,0,0,257,304.39c-19.36,18-37.53,27.85-49.88,27.85A14.17,14.17,0,0,1,200.44,330.63Zm140.84-45.24c2.79,22.68-.65,40.32-8.67,45a13.21,13.21,0,0,1-6.83,1.54c-12.29,0-30.52-9.8-49.88-27.67a280.44,280.44,0,0,0,24.52-29.63,277.27,277.27,0,0,0,37.76-6.53A166.23,166.23,0,0,1,341.28,285.39Zm22.86-39.6c-5.11,2.2-10.69,4.16-16.45,6a285.18,285.18,0,0,0-13.36-36.16,281.16,281.16,0,0,0,13.18-36c5.88,1.84,11.46,3.86,16.68,6.06,21,9,34.62,20.72,34.62,30S385.16,236.88,364.14,245.78Z" transform="translate(-0.25)"/>
    <g>
      <path class="cls-2" d="M148,380.3a90.59,90.59,0,0,1,16.7-1.4c9.3,0,15.3,1.7,19.5,5.5a16.79,16.79,0,0,1,5.3,12.8c0,8.9-5.6,14.8-12.7,17.2v.3c5.2,1.8,8.3,6.6,9.9,13.6,2.2,9.4,3.8,15.9,5.2,18.5h-9c-1.1-1.9-2.6-7.7-4.5-16.1-2-9.3-5.6-12.8-13.5-13.1h-8.2v29.2H148Zm8.7,30.7h8.9c9.3,0,15.2-5.1,15.2-12.8,0-8.7-6.3-12.5-15.5-12.6a35.84,35.84,0,0,0-8.6.8Z" transform="translate(-0.25)"/>
      <path class="cls-2" d="M206.8,424.21c.2,11.9,7.8,16.8,16.6,16.8a31.84,31.84,0,0,0,13.4-2.5l1.5,6.3c-3.1,1.4-8.4,3-16.1,3-14.9,0-23.8-9.8-23.8-24.4s8.6-26.1,22.7-26.1c15.8,0,20,13.9,20,22.8a33.13,33.13,0,0,1-.3,4.1Zm25.8-6.3c.1-5.6-2.3-14.3-12.2-14.3-8.9,0-12.8,8.2-13.5,14.3Z" transform="translate(-0.25)"/>
      <path class="cls-2" d="M278.8,446.81l-.7-6.1h-.3a18,18,0,0,1-14.8,7.2c-9.8,0-14.8-6.9-14.8-13.9,0-11.7,10.4-18.1,29.1-18v-1c0-4-1.1-11.2-11-11.2a24.12,24.12,0,0,0-12.6,3.6l-2-5.8a30,30,0,0,1,15.9-4.3c14.8,0,18.4,10.1,18.4,19.8v18.1a68.08,68.08,0,0,0,.8,11.6Zm-1.3-24.7c-9.6-.2-20.5,1.5-20.5,10.9,0,5.7,3.8,8.4,8.3,8.4a12,12,0,0,0,11.7-8.1,9.2,9.2,0,0,0,.5-2.8Z" transform="translate(-0.25)"/>
      <path class="cls-2" d="M334.7,445a32.42,32.42,0,0,1-13.9,2.8c-14.6,0-24.1-9.9-24.1-24.7s10.2-25.7,26-25.7a29.42,29.42,0,0,1,12.2,2.5l-2,6.8a20.39,20.39,0,0,0-10.2-2.3c-11.1,0-17.1,8.2-17.1,18.3,0,11.2,7.2,18.1,16.8,18.1a25,25,0,0,0,10.8-2.4Z" transform="translate(-0.25)"/>
      <path class="cls-2" d="M356.9,384.5v13.9h12.6v6.7H356.9v26.1c0,6,1.7,9.4,6.6,9.4a19.57,19.57,0,0,0,5.1-.6l.4,6.6a21.57,21.57,0,0,1-7.8,1.2c-4.1,0-7.4-1.3-9.5-3.7-2.5-2.6-3.4-6.9-3.4-12.6V405.1h-7.5v-6.7h7.5V386.8Z" transform="translate(-0.25)"/>
    </g>
  </g>
</svg>
